<svg width="399" height="460" viewBox="0 0 399 460" fill="none" xmlns="http://www.w3.org/2000/svg">
<g clip-path="url(#clip0_4_2)">
<rect width="399" height="460" fill="#AAAAAA"/>
<path d="M160.9 171.245C160.9 171.245 136.21 161.839 140 177.315C143.791 192.791 164.587 184.974 164.587 184.974L160.9 171.245Z" fill="#FFB8B8"/>
<path d="M255.28 113.157C255.28 113.157 242.627 92.0087 230.334 113.963C218.016 135.961 206.564 154.02 206.564 154.02L175.972 166.22L158.274 168.14L163.15 187.385L214.608 178.255C214.608 178.255 271.898 136.632 255.28 113.157Z" fill="#2F2E41"/>
<path d="M198.803 230.276C198.803 230.276 179.581 246.732 180.862 261.622C182.144 276.511 190.473 317.262 190.473 317.262L207.773 314.127C207.773 314.127 209.695 282.781 203.288 271.026L234.042 249.867L198.803 230.276Z" fill="#FFB8B8"/>
<path d="M241.411 269.067C241.411 269.067 240.129 298.062 243.333 309.817C246.536 321.572 249.74 365.457 249.74 365.457H267.68C267.68 365.457 276.01 327.057 265.758 309.817C265.758 309.817 262.554 287.091 271.525 276.12L241.411 269.067Z" fill="#FFB8B8"/>
<path d="M237.246 188.742C237.246 188.742 195.599 220.872 195.599 231.059L228.917 264.757L240.45 249.084L239.168 272.593L275.049 281.214C275.049 281.214 287.863 221.656 287.222 219.305C286.582 216.954 284.66 182.473 284.66 182.473L237.246 188.742Z" fill="#2F2E41"/>
<path d="M207.773 310.209L189.192 314.911L192.493 331.51C194.118 339.681 194.303 348.18 193.036 356.445C193.036 356.445 212.258 362.714 212.258 359.579C212.258 356.445 207.773 343.906 209.054 335.286C210.336 326.666 207.773 310.209 207.773 310.209Z" fill="#6C63FF"/>
<path d="M217.384 368.983C216.743 365.848 211.42 351.636 211.198 354.04C210.977 356.445 200.725 360.363 196.881 355.661C196.881 355.661 191.755 350.175 189.833 355.661C187.911 361.147 184.066 370.55 184.066 370.55C184.066 370.55 166.767 380.738 169.33 386.224C169.848 387.333 171.284 387.801 173.245 387.842C173.199 387.987 173.175 388.141 173.174 388.297V388.852C173.174 389.194 173.285 389.522 173.483 389.764C173.681 390.006 173.949 390.142 174.228 390.142H174.682C174.962 390.142 175.23 390.006 175.428 389.764C175.626 389.522 175.737 389.194 175.737 388.852V388.297C175.736 388.097 175.696 387.9 175.622 387.722C176.146 387.666 176.689 387.592 177.248 387.502C177.1 387.727 177.019 388.008 177.018 388.297V388.852C177.018 389.194 177.129 389.522 177.327 389.764C177.525 390.006 177.793 390.142 178.073 390.142H178.527C178.806 390.142 179.075 390.006 179.272 389.764C179.47 389.522 179.581 389.194 179.581 388.852V388.297C179.581 388.067 179.53 387.842 179.434 387.644C179.338 387.447 179.201 387.285 179.036 387.174C180.511 386.873 182.05 386.49 183.58 386.066C183.48 386.265 183.426 386.495 183.425 386.73V387.285C183.425 387.627 183.537 387.955 183.734 388.197C183.932 388.439 184.2 388.575 184.48 388.575H184.934C185.214 388.575 185.482 388.439 185.68 388.197C185.877 387.955 185.988 387.627 185.988 387.285V386.73C185.988 386.48 185.929 386.236 185.818 386.027C185.706 385.819 185.548 385.654 185.362 385.553C186.509 385.21 187.635 384.854 188.705 384.5C188.605 384.699 188.552 384.928 188.551 385.162V385.718C188.551 386.06 188.662 386.388 188.86 386.63C189.058 386.871 189.326 387.007 189.606 387.007H190.06C190.339 387.007 190.608 386.871 190.805 386.63C191.003 386.388 191.114 386.06 191.114 385.718V385.162C191.114 384.888 191.041 384.621 190.908 384.401C190.775 384.18 190.587 384.018 190.373 383.937C194.135 382.641 196.881 381.522 196.881 381.522C196.881 381.522 200.069 380.103 203.929 378.186V378.665C203.929 379.007 204.04 379.335 204.237 379.577C204.435 379.818 204.703 379.954 204.983 379.954H205.437C205.717 379.954 205.985 379.818 206.183 379.577C206.38 379.335 206.492 379.007 206.492 378.665V378.109C206.491 377.914 206.454 377.721 206.383 377.546C206.313 377.37 206.21 377.217 206.084 377.098C206.859 376.699 207.64 376.29 208.414 375.873V376.314C208.414 376.656 208.525 376.984 208.722 377.226C208.92 377.468 209.188 377.603 209.468 377.603H209.922C210.202 377.603 210.47 377.468 210.668 377.226C210.865 376.984 210.977 376.656 210.977 376.314V375.758C210.976 375.551 210.935 375.347 210.857 375.163C210.778 374.979 210.664 374.821 210.525 374.703C211.361 374.226 212.167 373.749 212.909 373.282C212.906 373.324 212.899 373.365 212.899 373.407V373.963C212.899 374.305 213.01 374.633 213.208 374.875C213.405 375.117 213.674 375.252 213.953 375.252H214.407C214.687 375.252 214.955 375.117 215.153 374.875C215.351 374.633 215.462 374.305 215.462 373.963V373.407C215.462 373.11 215.378 372.822 215.224 372.592C215.07 372.361 214.856 372.203 214.618 372.144C216.409 370.871 217.539 369.743 217.384 368.983Z" fill="#2F2E41"/>
<path d="M268.962 361.93L248.664 360.363C248.664 360.363 249.894 386.224 247.434 394.844C244.973 403.464 246.204 406.599 246.204 406.599L264.041 408.166L268.962 361.93Z" fill="#6C63FF"/>
<path d="M269.212 419.086C269.119 415.857 266.336 400.599 265.709 402.894C265.083 405.189 254.388 406.407 251.43 400.828C251.43 400.828 247.352 394.156 244.537 399.031C241.722 403.905 236.359 412.122 236.359 412.122C236.359 412.122 217.703 417.674 219.274 423.693C219.592 424.91 220.917 425.734 222.828 426.274C222.758 426.404 222.708 426.549 222.681 426.701L222.586 427.244C222.528 427.579 222.581 427.928 222.733 428.215C222.885 428.502 223.124 428.703 223.398 428.774L223.842 428.89C224.115 428.961 224.401 428.897 224.635 428.711C224.87 428.525 225.034 428.232 225.093 427.898L225.187 427.354C225.22 427.159 225.215 426.956 225.173 426.763C225.695 426.842 226.239 426.908 226.801 426.962C226.618 427.145 226.491 427.399 226.441 427.681L226.346 428.224C226.288 428.559 226.34 428.908 226.493 429.195C226.645 429.482 226.884 429.683 227.157 429.755L227.601 429.87C227.875 429.942 228.16 429.877 228.395 429.691C228.63 429.505 228.794 429.213 228.852 428.878L228.947 428.335C228.986 428.11 228.975 427.877 228.914 427.659C228.854 427.442 228.747 427.248 228.605 427.098C230.099 427.179 231.669 427.197 233.239 427.172C233.106 427.342 233.015 427.553 232.974 427.782L232.88 428.325C232.821 428.66 232.874 429.009 233.026 429.296C233.178 429.583 233.417 429.784 233.691 429.856L234.135 429.971C234.408 430.043 234.694 429.978 234.929 429.792C235.163 429.606 235.328 429.314 235.386 428.979L235.481 428.436C235.523 428.192 235.507 427.938 235.433 427.706C235.36 427.473 235.233 427.271 235.068 427.125C236.249 427.083 237.41 427.021 238.518 426.948C238.386 427.118 238.295 427.328 238.254 427.557L238.16 428.1C238.101 428.434 238.154 428.783 238.306 429.07C238.459 429.357 238.698 429.559 238.971 429.63L239.415 429.746C239.689 429.817 239.974 429.753 240.209 429.567C240.443 429.38 240.608 429.088 240.666 428.753L240.761 428.21C240.807 427.942 240.782 427.662 240.689 427.413C240.596 427.163 240.441 426.956 240.245 426.823C244.146 426.515 247.021 426.12 247.021 426.12C247.021 426.12 250.381 425.546 254.483 424.655L254.401 425.123C254.343 425.458 254.396 425.807 254.548 426.094C254.7 426.381 254.939 426.582 255.213 426.654L255.657 426.769C255.93 426.841 256.216 426.776 256.451 426.59C256.685 426.404 256.85 426.112 256.908 425.777L257.003 425.234C257.036 425.043 257.032 424.845 256.993 424.655C256.954 424.465 256.88 424.289 256.776 424.14C257.602 423.948 258.437 423.747 259.264 423.537L259.189 423.968C259.13 424.302 259.183 424.652 259.335 424.939C259.487 425.226 259.727 425.427 260 425.498L260.444 425.614C260.718 425.685 261.003 425.621 261.238 425.435C261.472 425.248 261.637 424.956 261.695 424.621L261.79 424.078C261.825 423.875 261.82 423.665 261.774 423.465C261.729 423.266 261.644 423.082 261.529 422.931C262.428 422.678 263.296 422.417 264.102 422.149C264.092 422.189 264.078 422.227 264.071 422.269L263.976 422.812C263.918 423.147 263.97 423.496 264.123 423.783C264.275 424.07 264.514 424.271 264.787 424.343L265.231 424.458C265.505 424.53 265.79 424.465 266.025 424.279C266.26 424.093 266.424 423.8 266.483 423.466L266.577 422.923C266.628 422.632 266.595 422.329 266.484 422.064C266.373 421.8 266.19 421.591 265.967 421.472C267.937 420.684 269.234 419.868 269.212 419.086Z" fill="#2F2E41"/>
<path d="M237.246 86.8663C247.508 86.8663 255.827 76.6915 255.827 64.1403C255.827 51.589 247.508 41.4142 237.246 41.4142C226.984 41.4142 218.665 51.589 218.665 64.1403C218.665 76.6915 226.984 86.8663 237.246 86.8663Z" fill="#FFB8B8"/>
<path d="M253.905 61.7893C253.905 61.7893 264.157 77.4625 269.282 76.6788L246.857 97.8376C246.857 97.8376 244.294 84.5154 241.091 82.9481C237.887 81.3808 253.905 61.7893 253.905 61.7893Z" fill="#FFB8B8"/>
<path d="M293.95 178.162C293.95 178.162 293.949 91.6887 282.088 84.2396C270.235 76.7949 262.394 72.5458 262.394 72.5458C262.22 75.3832 261.56 78.1442 260.459 80.6505C259.357 83.1568 257.838 85.3526 256 87.096C252.069 90.8072 248.154 93.8845 245.966 93.8943L245.896 93.5274L245.629 92.5957L239.168 104.89C239.168 104.89 233.402 106.458 231.48 111.16C230.44 113.703 235.344 139.311 232.441 162.489C229.978 182.154 219.6 199.906 219.306 202.064C218.809 205.712 231.422 196.154 237.102 191.685C237.186 191.8 237.246 191.876 237.246 191.876C237.246 191.876 234.043 193.444 240.45 191.093C244.08 189.761 249.149 189.687 252.862 189.873C252.858 191.234 252.884 192.316 252.944 193.052C253.585 200.888 285.621 211.86 290.106 209.509C294.591 207.158 293.95 178.162 293.95 178.162Z" fill="#2F2E41"/>
<path d="M271.525 207.941C271.525 207.941 252.303 229.1 265.118 233.018C277.932 236.937 283.058 211.076 283.058 211.076L271.525 207.941Z" fill="#FFB8B8"/>
<path d="M251.429 384.694C251.429 384.694 256.485 378.952 259.374 382.044C262.263 385.136 264.069 387.344 264.069 387.344C264.069 387.344 255.763 381.161 251.429 384.694Z" fill="#2F2E41"/>
<path d="M194.787 331.284C194.787 331.284 198.258 323.991 201.758 325.921C205.258 327.85 207.511 329.32 207.511 329.32C207.511 329.32 198.093 326.361 194.787 331.284Z" fill="#2F2E41"/>
<path d="M289.109 94.9919C282.757 79.3768 263.432 87.8933 266.572 104.906C266.619 105.159 266.668 105.416 266.719 105.674C270.029 121.778 275.438 137.126 282.738 151.126L275.69 189.526L268.001 209.117L284.019 213.819L303.881 155.045C303.881 155.045 298.403 117.842 289.109 94.9919Z" fill="#2F2E41"/>
<path opacity="0.2" d="M279.854 152.302L267.68 208.725L277.932 182.081L279.854 152.302Z" fill="black"/>
<path d="M248.916 37.6495C248.916 37.6495 238.645 24.4242 228.306 32.753C217.968 41.0818 213.064 49.1725 214.078 54.8059C215.091 60.4393 218.091 68.2751 218.091 68.2751C218.091 68.2751 216.227 56.6043 224.787 55.7407C233.347 54.877 245.174 47.9482 245.174 47.9482L253.174 68.8435C253.174 68.8435 254.305 64.0014 257.44 65.3902C260.576 66.7791 258.146 39.1986 248.916 37.6495Z" fill="#2F2E41"/>
<path d="M183.105 336.461C183.104 338.446 182.969 340.428 182.701 342.386V342.394C181.966 347.66 180.261 352.653 177.717 356.996C175.173 361.34 171.855 364.919 168.015 367.465C164.174 370.01 159.911 371.456 155.547 371.692C151.183 371.927 146.832 370.948 142.823 368.826H142.816C141.63 368.2 140.48 367.475 139.376 366.656C135.952 364.127 132.994 360.756 130.691 356.756C128.388 352.757 126.79 348.215 125.997 343.42C125.626 341.129 125.439 338.798 125.44 336.461C125.44 335.396 125.478 334.338 125.555 333.295V333.288C126.22 324.289 129.684 315.945 135.232 309.979C140.779 304.013 147.988 300.879 155.37 301.223C162.752 301.568 169.744 305.366 174.904 311.832C180.064 318.299 182.997 326.941 183.099 335.976V335.983C183.105 336.148 183.105 336.297 183.105 336.461Z" fill="#6C63FF"/>
<path d="M161.37 324.683H148.456L142 311.008L146.379 301.723L146.635 301.639C152.179 299.827 158.035 300.027 163.488 302.215L163.72 302.309L167.827 311.008L161.37 324.683ZM149.196 323.115H160.63L166.347 311.008L162.856 303.612C157.789 301.647 152.373 301.459 147.223 303.07L143.479 311.008L149.196 323.115Z" fill="white"/>
<path d="M160.729 352.895H147.816L141.359 339.217L147.816 325.539H160.729L167.186 339.217L160.729 352.895ZM148.555 351.328H159.99L165.706 339.217L159.99 327.106H148.555L142.839 339.217L148.555 351.328Z" fill="white"/>
<path d="M154.273 372.51C150.245 372.519 146.26 371.51 142.567 369.545L141.909 369.195L148.456 355.316H161.37L167.641 368.603L167.019 368.969C163.043 371.312 158.685 372.523 154.273 372.51ZM143.741 368.448C147.264 370.181 151.037 371.027 154.833 370.936C158.63 370.844 162.372 369.816 165.837 367.913L160.63 356.883H149.197L143.741 368.448Z" fill="white"/>
<path d="M182.514 338.789H169.601L163.144 325.114L169.6 311.431H175.48L175.67 311.675C180.769 318.237 183.652 326.913 183.74 335.965V336.193L182.514 338.789ZM170.34 337.221H181.774L182.456 335.779C182.332 327.309 179.651 319.195 174.928 312.998H170.34L164.623 325.114L170.34 337.221Z" fill="white"/>
<path d="M169.423 367.401L163.144 354.109L169.6 340.426H182.513L183.342 342.174L183.333 342.525C182.633 347.515 181.083 352.27 178.784 356.481C176.484 360.691 173.487 364.264 169.986 366.966L169.423 367.401ZM164.623 354.109L169.861 365.196C173.034 362.618 175.748 359.281 177.84 355.386C179.931 351.492 181.357 347.12 182.031 342.534L181.775 341.994H170.34L164.623 354.109Z" fill="white"/>
<path d="M139.604 367.739L139.044 367.326C135.546 364.74 132.523 361.293 130.17 357.205C127.816 353.116 126.181 348.475 125.369 343.574L125.322 343.284L126.672 340.426H139.586L146.042 354.109L139.604 367.739ZM126.674 343.554C127.452 348.053 128.957 352.318 131.099 356.097C133.242 359.876 135.979 363.095 139.152 365.564L144.563 354.109L138.845 341.994H127.412L126.674 343.554Z" fill="white"/>
<path d="M139.585 337.221H126.672L124.915 333.506V333.295C125.547 324.414 128.856 316.138 134.198 310.073L134.383 309.864H139.586L146.042 323.546L139.585 337.221ZM127.411 335.654H138.846L144.563 323.546L138.846 311.431H134.888C129.945 317.137 126.862 324.843 126.212 333.118L127.411 335.654Z" fill="white"/>
</g>
<defs>
<clipPath id="clip0_4_2">
<rect width="399" height="460" fill="white"/>
</clipPath>
</defs>
</svg>
