<svg width="586" height="606" viewBox="0 0 586 606" fill="none" xmlns="http://www.w3.org/2000/svg">
<g id="Frame 2">
<g id="startup-rocket-svgrepo-com (1) 1" clip-path="url(#clip0_753_162)">
<g id="Group">
<path id="Vector" d="M408.26 374.211L341.454 351.04L339.917 272.688C354.407 280.401 407.599 318.25 408.26 374.211Z" fill="#0000FF"/>
<path id="Vector_2" d="M173.226 371.433L239.503 349.835L239.189 271.498C224.877 278.871 172.565 315.473 173.226 371.433Z" fill="#0000FF"/>
</g>
<path id="Vector_3" d="M287.239 76.232C214.887 108.949 210.084 176.035 210.349 198.419C210.732 230.825 228.517 310.591 239.503 349.836L290.478 350.439L341.453 351.041C351.514 312.045 367.42 232.676 367.037 200.271C366.774 177.886 360.384 110.667 287.239 76.232Z" fill="#ECEDEF"/>
<path id="Vector_4" d="M287.239 76.232C241.48 96.9236 222.745 131.36 215.218 159.543L361.248 161.268C353.053 132.899 333.499 98.0104 287.239 76.232Z" fill="#0000FF"/>
<path id="Vector_5" d="M324.53 218.588C343.966 199.151 343.589 167.262 323.688 147.361C303.787 127.461 271.898 127.084 252.462 146.52C233.026 165.956 233.403 197.845 253.303 217.746C273.204 237.647 305.093 238.024 324.53 218.588Z" fill="#B3B9BF"/>
<path id="Vector_6" d="M312.518 206.576C325.475 193.619 325.224 172.36 311.957 159.092C311.957 159.092 277.431 145.574 264.473 158.531C251.516 171.489 251.767 192.748 265.034 206.015C278.302 219.282 299.561 219.533 312.518 206.576Z" fill="#F7AB49"/>
<path id="Vector_7" d="M304.075 198.134C312.479 189.73 312.316 175.942 303.712 167.338C295.107 158.733 281.319 158.57 272.916 166.974C264.512 175.377 264.675 189.165 273.28 197.77C281.884 206.374 295.672 206.537 304.075 198.134Z" fill="#FFC44F"/>
<path id="Vector_8" d="M335.511 373.352L245.975 372.293L256.902 350.041L324.055 350.835L335.511 373.352Z" fill="#68727E"/>
<path id="Vector_9" d="M324.055 350.835L256.903 350.041L251.547 360.945L329.669 361.868L324.055 350.835Z" fill="#424F5E"/>
<path id="Vector_10" d="M216.6 248.851C217.902 256.133 219.352 263.676 220.893 271.282L358.213 272.905C359.576 265.333 360.847 257.822 361.977 250.568L216.6 248.851Z" fill="#0000FF"/>
<path id="Vector_11" d="M291.098 78.1157C297.302 83.8415 303.322 89.7306 307.265 96.8509C322.454 126.704 337.644 156.556 340.02 190.214C342.594 240.69 337.744 290.583 317.519 336.832C315.238 341.819 312.272 346.121 309.547 350.663L341.455 351.04C351.516 312.043 367.422 232.675 367.04 200.27C366.778 178.287 360.605 113.063 291.098 78.1157Z" fill="#D9DCDF"/>
<g id="Group_2">
<path id="Vector_12" d="M291.091 78.1093C297.298 83.8369 303.32 89.7283 307.265 96.8514C317.914 117.782 328.557 138.714 334.791 160.956L361.248 161.268C353.284 133.7 334.591 99.9769 291.091 78.1093Z" fill="#0000FF"/>
<path id="Vector_13" d="M358.213 272.904C359.576 265.332 360.847 257.822 361.977 250.568L339.032 250.297C338.33 257.791 337.383 265.243 336.168 272.644L358.213 272.904Z" fill="#0000FF"/>
</g>
<path id="Vector_14" d="M330.791 447.391C331.047 469.026 292.412 514.081 292.412 514.081C292.412 514.081 252.702 468.1 252.446 446.466C252.191 424.832 269.522 407.501 291.156 407.756C312.79 408.012 330.535 425.757 330.791 447.391Z" fill="#FF0000"/>
<path id="Vector_15" d="M308.274 435.935C308.384 445.207 291.949 474.909 291.949 474.909C291.949 474.909 274.807 444.81 274.697 435.538C274.588 426.266 282.016 418.839 291.287 418.949C300.56 419.058 308.165 426.663 308.274 435.935Z" fill="#FFD791"/>
<path id="Vector_16" d="M289.381 71.4939C287.978 70.8332 286.371 70.8142 284.985 71.4424C211.923 104.48 204.782 171.204 205.102 198.357C205.312 216.097 210.625 247.885 217.319 279.881C208.033 287.323 195.671 298.904 185.625 314.216C173.683 332.42 167.746 351.65 167.979 371.372C168.021 374.902 171.63 377.51 174.957 376.426L240.423 355.093L248.475 355.188L241.253 369.892C239.582 373.295 242.201 377.494 246.036 377.54L335.573 378.598C339.407 378.643 341.926 374.502 340.175 371.061L332.604 356.182L340.657 356.277L406.646 379.164C409.999 380.327 413.546 377.804 413.506 374.273C412.977 329.537 381.113 297.068 361.991 281.588C367.931 249.741 372.494 218.072 372.284 200.333C371.963 173.179 363.244 106.268 289.381 71.4939ZM287.307 82.0308C326.439 101.184 345.219 130.234 354.103 155.939L336.535 155.731C326.765 138.789 308.543 127.191 287.837 126.946C267.131 126.702 249.179 137.872 239.806 154.589L222.239 154.382C230.519 128.879 248.618 100.265 287.307 82.0308ZM287.962 137.438C312.84 137.732 333.319 158.212 333.613 183.09C333.76 195.531 328.835 206.748 320.76 214.821C312.687 222.893 301.465 227.821 289.028 227.674C264.15 227.381 243.671 206.901 243.377 182.023C243.083 157.145 263.083 137.144 287.962 137.438ZM353.786 267.606L311.007 267.101C308.11 267.067 305.789 269.388 305.823 272.285C305.858 275.183 308.234 277.559 311.132 277.593L351.899 278.075C347.413 302.325 342.07 326.989 337.357 345.746L243.476 344.636C238.319 325.764 232.391 300.966 227.33 276.603L286.647 277.303C289.544 277.337 291.865 275.016 291.831 272.119C291.796 269.221 289.42 266.845 286.523 266.811L225.196 266.086C224.399 262.066 223.634 258.085 222.906 254.169L355.795 255.739C355.159 259.639 354.487 263.604 353.786 267.606ZM219.827 291.587C224.204 311.566 228.946 330.959 233.135 346.354L178.709 364.09C181.246 330.769 203.126 305.917 219.827 291.587ZM326.961 368.004L254.401 367.147L260.206 355.326L320.874 356.043L326.961 368.004ZM402.598 366.735L347.742 347.709C351.568 332.409 355.852 313.126 359.757 293.246C376.294 307.569 399.224 333.122 402.598 366.735ZM357.434 245.268L221.019 243.657C217.825 225.181 215.719 208.964 215.595 198.481C215.498 190.34 216.126 178.357 219.315 164.837L235.319 165.026C233.676 170.34 232.814 176.007 232.883 181.899C233.246 212.564 258.487 237.805 289.152 238.168C304.484 238.349 318.312 232.277 328.263 222.326C338.214 212.374 344.286 198.546 344.106 183.214C344.036 177.321 343.039 171.633 341.27 166.279L357.275 166.468C360.783 180.067 361.695 192.068 361.791 200.209C361.915 210.691 360.192 226.863 357.434 245.268Z" fill="black"/>
<path id="Vector_17" d="M288.954 221.38C299.658 221.506 309.31 217.268 316.258 210.32C323.202 203.374 327.443 193.718 327.317 183.017C327.195 172.647 323.041 162.849 315.622 155.43C308.203 148.011 298.406 143.857 288.036 143.735C285.139 143.701 282.817 146.022 282.852 148.919C282.886 151.817 285.263 154.193 288.16 154.227C295.727 154.317 302.876 157.347 308.291 162.762C313.705 168.176 316.735 175.325 316.825 182.892C316.915 190.46 314.052 197.539 308.764 202.826C303.476 208.114 296.397 210.976 288.83 210.887C273.208 210.703 260.35 197.845 260.165 182.223C260.071 174.293 263.361 166.716 269.129 161.426C271.253 159.506 271.351 156.178 269.37 154.018C267.387 151.857 264.068 151.67 261.954 153.602C254.02 160.846 249.544 171.233 249.672 182.099C249.925 203.504 267.547 221.126 288.954 221.38Z" fill="black"/>
<path id="Vector_18" d="M302.796 180.265C306.036 177.025 305.973 171.71 302.656 168.393C299.339 165.077 294.024 165.014 290.785 168.253C287.545 171.493 287.608 176.807 290.925 180.124C294.242 183.441 299.557 183.504 302.796 180.265Z" fill="black"/>
<path id="Vector_19" d="M296.555 477.532C299.409 472.373 313.641 446.128 313.521 435.997C313.452 430.111 311.094 424.551 306.883 420.34C302.672 416.129 297.112 413.771 291.226 413.702C279.076 413.559 269.309 423.327 269.453 435.476C269.572 445.607 284.429 472.196 287.405 477.423C289.415 480.95 294.626 481.013 296.555 477.532ZM279.945 435.601C279.888 430.774 282.968 426.373 287.5 424.813C292.022 423.255 297.208 424.764 300.315 428.51C302.035 430.586 302.997 433.21 303.028 435.874L303.029 435.874C303.079 440.147 297.422 452.853 291.819 463.848C285.953 452.719 279.995 439.877 279.945 435.601Z" fill="black"/>
</g>
</g>
<defs>
<clipPath id="clip0_753_162">
<rect width="325.269" height="333.047" fill="white" transform="translate(57 286) rotate(-45)"/>
</clipPath>
</defs>
</svg>
